<svg id="svg" xmlns="http://www.w3.org/2000/svg" xmlns:xlink="http://www.w3.org/1999/xlink" width="400" height="422.64150943396226" viewBox="0, 0, 400,422.64150943396226"><g id="svgg"><path id="path0" d="M177.934 58.890 C 173.139 62.248,145.576 88.404,116.683 117.013 L 64.151 169.029 64.271 249.609 C 64.420 349.512,61.146 343.396,114.480 343.396 C 165.848 343.396,167.159 341.973,165.586 287.922 L 164.510 250.943 186.972 250.943 L 209.434 250.943 208.348 287.115 C 206.654 343.554,206.521 343.396,255.756 343.396 C 309.503 343.396,305.664 350.496,305.639 251.132 L 305.618 167.925 249.318 111.415 C 186.071 47.934,189.731 50.627,177.934 58.890 M236.654 130.336 L 283.188 177.653 282.160 246.373 L 281.132 315.094 256.604 315.094 L 232.075 315.094 230.995 273.637 C 229.691 223.584,231.666 225.813,187.404 224.422 C 140.625 222.952,140.256 223.342,138.820 275.613 L 137.736 315.094 114.151 316.218 L 90.566 317.341 90.566 246.022 L 90.566 174.703 137.773 128.861 C 163.737 103.648,186.137 83.019,187.550 83.019 C 188.964 83.019,211.060 104.311,236.654 130.336 " stroke="none" fill="#000000" fill-rule="evenodd"></path></g></svg>